<?xml version="1.0" encoding="UTF-8"?>
<!DOCTYPE svg PUBLIC "-//W3C//DTD SVG 1.1//EN" "http://www.w3.org/Graphics/SVG/1.1/DTD/svg11.dtd">
<svg xmlns="http://www.w3.org/2000/svg" version="1.1" width="320px" height="320px" style="shape-rendering:geometricPrecision; text-rendering:geometricPrecision; image-rendering:optimizeQuality; fill-rule:evenodd; clip-rule:evenodd" xmlns:xlink="http://www.w3.org/1999/xlink">
<g><path style="opacity:1" fill="#0e0e0e" d="M 156.5,-0.5 C 157.5,-0.5 158.5,-0.5 159.5,-0.5C 226.275,2.81173 274.775,34.1451 305,93.5C 313.019,113.567 317.852,134.234 319.5,155.5C 319.5,159.5 319.5,163.5 319.5,167.5C 313.497,231.358 281.831,277.525 224.5,306C 207.384,313.195 189.717,317.695 171.5,319.5C 164.5,319.5 157.5,319.5 150.5,319.5C 104.916,314.957 66.749,295.624 36,261.5C 13.0207,231.397 0.854005,197.397 -0.5,159.5C -0.5,159.167 -0.5,158.833 -0.5,158.5C 3.28433,91.9027 34.951,43.7361 94.5,14C 114.483,5.66875 135.15,0.835418 156.5,-0.5 Z M 155.5,12.5 C 203.095,13.6318 242.595,31.9651 274,67.5C 306.863,112.2 314.196,160.866 296,213.5C 269.918,272.649 224.418,303.649 159.5,306.5C 94.156,303.611 48.656,272.278 23,212.5C 1.7274,149.843 14.8941,95.676 62.5,50C 89.5006,27.497 120.501,14.997 155.5,12.5 Z M 207.5,128.5 C 209.229,129.117 210.729,130.117 212,131.5C 213.658,137.446 214.658,143.446 215,149.5C 209.043,151.714 202.876,153.048 196.5,153.5C 194.436,151.518 193.103,149.184 192.5,146.5C 194.975,143.215 196.642,139.548 197.5,135.5C 200.302,132.358 203.635,130.025 207.5,128.5 Z M 182.5,133.5 C 181.174,137.67 178.508,140.837 174.5,143C 170.114,145.406 165.448,146.906 160.5,147.5C 159.979,143.519 159.646,139.519 159.5,135.5C 167.174,134.916 174.841,134.249 182.5,133.5 Z M 156.5,147.5 C 150.327,147.617 144.494,145.95 139,142.5C 138.517,141.552 138.351,140.552 138.5,139.5C 143.5,138.663 148.5,138.163 153.5,138C 154.815,141.081 155.815,144.247 156.5,147.5 Z M 116.5,141.5 C 117.488,142.795 118.488,144.128 119.5,145.5C 120.304,148.579 121.304,151.579 122.5,154.5C 121.833,159.833 121.167,165.167 120.5,170.5C 114.295,171.592 108.128,172.926 102,174.5C 101.167,174.167 100.333,173.833 99.5,173.5C 94.5799,165.328 89.9132,156.995 85.5,148.5C 95.9741,146.261 106.307,143.928 116.5,141.5 Z M 189.5,150.5 C 189.5,152.5 189.5,154.5 189.5,156.5C 185.575,156.43 181.909,157.097 178.5,158.5C 177.5,158.5 176.5,158.5 175.5,158.5C 179.904,155.441 184.571,152.775 189.5,150.5 Z M 126.5,151.5 C 132.503,154.83 138.837,157.664 145.5,160C 150.42,161.25 155.42,161.75 160.5,161.5C 158.221,162.651 155.888,163.651 153.5,164.5C 147.833,165.167 142.167,165.833 136.5,166.5C 134.009,163.53 131.342,160.53 128.5,157.5C 128.029,155.421 127.363,153.421 126.5,151.5 Z M 213.5,154.5 C 215.408,154.883 216.908,155.883 218,157.5C 219.529,162.809 219.696,168.142 218.5,173.5C 212.661,177.113 206.328,179.113 199.5,179.5C 198.329,172.836 197.496,166.169 197,159.5C 202.606,157.887 208.106,156.221 213.5,154.5 Z M 187.5,159.5 C 189.582,159.624 191.082,160.624 192,162.5C 193.484,168.437 194.651,174.437 195.5,180.5C 195.167,181.5 194.833,182.5 194.5,183.5C 186.934,185.975 179.267,187.975 171.5,189.5C 169.83,181.49 168.164,173.49 166.5,165.5C 173.733,163.945 180.733,161.945 187.5,159.5 Z M 137.5,177.5 C 136.85,175.565 136.517,173.565 136.5,171.5C 144.682,169.776 152.849,168.11 161,166.5C 163.791,174.096 165.957,181.93 167.5,190C 167.245,191.326 166.578,192.326 165.5,193C 159.913,194.807 154.247,196.307 148.5,197.5C 147.833,197.167 147.167,196.833 146.5,196.5C 143.286,190.15 140.286,183.816 137.5,177.5 Z M 120.5,174.5 C 122.109,177.149 122.943,180.149 123,183.5C 123.417,190.846 123.917,198.179 124.5,205.5C 126.099,205.232 127.432,205.566 128.5,206.5C 123.986,207.331 119.819,206.331 116,203.5C 111.374,195.748 106.874,187.915 102.5,180C 103.328,179.085 104.328,178.419 105.5,178C 110.613,177.145 115.613,175.979 120.5,174.5 Z M 138.5,191.5 C 140.499,194 141.833,196.833 142.5,200C 141.142,200.934 139.808,201.768 138.5,202.5C 137.167,198.833 137.167,195.167 138.5,191.5 Z M 47.5,204.5 C 50.3892,204.999 51.0558,206.499 49.5,209C 48.2506,209.74 47.2506,209.573 46.5,208.5C 46.4326,207.041 46.7659,205.708 47.5,204.5 Z M 218.5,221.5 C 226.828,222.069 228.495,225.569 223.5,232C 216.947,232.763 214.781,229.93 217,223.5C 217.717,222.956 218.217,222.289 218.5,221.5 Z M 56.5,228.5 C 63.4038,228.806 64.7372,231.639 60.5,237C 56.6391,239.492 54.3058,238.492 53.5,234C 53.8627,231.808 54.8627,229.974 56.5,228.5 Z M 130.5,240.5 C 137.733,240.545 139.733,243.711 136.5,250C 128.426,250.852 126.426,247.685 130.5,240.5 Z M 243.5,249.5 C 245.609,250.391 247.609,251.558 249.5,253C 248.667,253.833 247.833,254.667 247,255.5C 245.558,253.609 244.391,251.609 243.5,249.5 Z M 156.5,281.5 C 158.591,281.318 160.591,281.652 162.5,282.5C 163.487,285.768 163.82,289.102 163.5,292.5C 154.542,293.502 152.209,289.836 156.5,281.5 Z"/></g>
<g><path style="opacity:1" fill="#436046" d="M 220.5,105.5 C 217.466,99.1016 214.132,92.7683 210.5,86.5C 206.813,83.6469 203.647,80.3135 201,76.5C 195.429,69.4151 188.596,64.0818 180.5,60.5C 179.584,60.5427 178.917,60.8761 178.5,61.5C 177.5,62.1667 176.5,62.8333 175.5,63.5C 172.882,59.7093 170.049,56.0426 167,52.5C 164.839,47.5076 162.172,42.8409 159,38.5C 158.53,37.4232 158.697,36.4232 159.5,35.5C 168.095,34.7619 176.762,34.7619 185.5,35.5C 185.192,37.924 185.526,40.2573 186.5,42.5C 202.56,53.049 214.393,67.049 222,84.5C 222.949,91.6591 222.449,98.6591 220.5,105.5 Z"/></g>
<g><path style="opacity:0.847" fill="#8a9a88" d="M 159.5,35.5 C 158.697,36.4232 158.53,37.4232 159,38.5C 162.172,42.8409 164.839,47.5076 167,52.5C 170.049,56.0426 172.882,59.7093 175.5,63.5C 175.44,64.0431 175.107,64.3764 174.5,64.5C 167.876,56.0826 161.876,47.2493 156.5,38C 156.748,36.2509 157.748,35.4176 159.5,35.5 Z"/></g>
<g><path style="opacity:1" fill="#93c744" d="M 130.5,75.5 C 131.5,75.5 132.5,75.5 133.5,75.5C 144.505,75.3335 155.505,75.5002 166.5,76C 171.02,78.0068 175.687,79.5068 180.5,80.5C 194.17,88.4948 201.17,100.495 201.5,116.5C 199.444,120.238 197.944,124.238 197,128.5C 196.297,130.929 196.463,133.262 197.5,135.5C 196.642,139.548 194.975,143.215 192.5,146.5C 190.738,147.262 189.738,148.596 189.5,150.5C 184.571,152.775 179.904,155.441 175.5,158.5C 174.508,158.328 173.842,158.662 173.5,159.5C 169.295,160.91 164.962,161.577 160.5,161.5C 155.42,161.75 150.42,161.25 145.5,160C 138.837,157.664 132.503,154.83 126.5,151.5C 124.167,149.5 121.833,147.5 119.5,145.5C 118.488,144.128 117.488,142.795 116.5,141.5C 114.562,139.837 112.228,139.171 109.5,139.5C 110.739,138.788 111.239,137.788 111,136.5C 101.503,124.834 93.0028,112.5 85.5,99.5C 83.4058,97.0297 82.4058,94.0297 82.5,90.5C 82.692,86.8098 83.0253,83.1431 83.5,79.5C 89.214,80.6068 94.3807,82.9401 99,86.5C 98.8047,88.1261 98.8047,89.7928 99,91.5C 107.801,107.786 118.967,122.119 132.5,134.5C 133.911,136.914 135.911,138.581 138.5,139.5C 138.351,140.552 138.517,141.552 139,142.5C 144.494,145.95 150.327,147.617 156.5,147.5C 157.833,147.5 159.167,147.5 160.5,147.5C 165.448,146.906 170.114,145.406 174.5,143C 178.508,140.837 181.174,137.67 182.5,133.5C 184.074,131.898 184.741,129.898 184.5,127.5C 186.264,122.361 186.931,117.028 186.5,111.5C 186.662,109.473 186.495,107.473 186,105.5C 183.302,101.633 180.802,97.633 178.5,93.5C 178.977,92.5224 179.643,91.6891 180.5,91C 179.833,90.6667 179.167,90.3333 178.5,90C 162.993,88.6519 147.493,88.4852 132,89.5C 129.833,89.6694 128.666,90.836 128.5,93C 130.826,103.417 131.493,113.917 130.5,124.5C 127.236,120.313 123.736,116.313 120,112.5C 119.63,103.455 118.797,94.4555 117.5,85.5C 117.353,82.7466 118.02,80.2466 119.5,78C 123.392,77.5812 127.058,76.7479 130.5,75.5 Z M 182.5,133.5 C 181.174,137.67 178.508,140.837 174.5,143C 170.114,145.406 165.448,146.906 160.5,147.5C 159.979,143.519 159.646,139.519 159.5,135.5C 167.174,134.916 174.841,134.249 182.5,133.5 Z M 156.5,147.5 C 150.327,147.617 144.494,145.95 139,142.5C 138.517,141.552 138.351,140.552 138.5,139.5C 143.5,138.663 148.5,138.163 153.5,138C 154.815,141.081 155.815,144.247 156.5,147.5 Z"/></g>
<g><path style="opacity:1" fill="#adce75" d="M 133.5,75.5 C 145.326,74.3403 157.326,74.1737 169.5,75C 173.507,76.3366 177.173,78.1699 180.5,80.5C 175.687,79.5068 171.02,78.0068 166.5,76C 155.505,75.5002 144.505,75.3335 133.5,75.5 Z"/></g>
<g><path style="opacity:1" fill="#809074" d="M 178.5,61.5 C 178.917,60.8761 179.584,60.5427 180.5,60.5C 188.596,64.0818 195.429,69.4151 201,76.5C 203.647,80.3135 206.813,83.6469 210.5,86.5C 214.132,92.7683 217.466,99.1016 220.5,105.5C 217.811,112.203 215.145,118.87 212.5,125.5C 210.326,125.75 208.659,126.75 207.5,128.5C 203.635,130.025 200.302,132.358 197.5,135.5C 196.463,133.262 196.297,130.929 197,128.5C 197.944,124.238 199.444,120.238 201.5,116.5C 202.789,117.501 204.122,117.334 205.5,116C 210.098,112.741 213.098,108.408 214.5,103C 207.727,84.7204 195.727,70.887 178.5,61.5 Z"/></g>
<g><path style="opacity:1" fill="#abce71" d="M 130.5,75.5 C 127.058,76.7479 123.392,77.5812 119.5,78C 118.02,80.2466 117.353,82.7466 117.5,85.5C 118.797,94.4555 119.63,103.455 120,112.5C 123.736,116.313 127.236,120.313 130.5,124.5C 131.493,113.917 130.826,103.417 128.5,93C 128.666,90.836 129.833,89.6694 132,89.5C 147.493,88.4852 162.993,88.6519 178.5,90C 179.167,90.3333 179.833,90.6667 180.5,91C 179.643,91.6891 178.977,92.5224 178.5,93.5C 180.802,97.633 183.302,101.633 186,105.5C 186.495,107.473 186.662,109.473 186.5,111.5C 180.179,94.9071 168.012,87.5737 150,89.5C 144.593,90.4732 139.093,90.8066 133.5,90.5C 132.665,103.477 132.498,116.477 133,129.5C 127.256,124.427 122.256,118.76 118,112.5C 116.325,100.224 115.492,87.8903 115.5,75.5C 120.5,75.5 125.5,75.5 130.5,75.5 Z"/></g>
<g><path style="opacity:1" fill="#aecf79" d="M 83.5,79.5 C 83.0253,83.1431 82.692,86.8098 82.5,90.5C 82.4058,94.0297 83.4058,97.0297 85.5,99.5C 82.7279,99.3727 81.3946,97.8727 81.5,95C 80.6818,89.5294 80.3484,84.0294 80.5,78.5C 81.791,78.2627 82.791,78.596 83.5,79.5 Z"/></g>
<g><path style="opacity:1" fill="#294b31" d="M 109.5,139.5 C 112.228,139.171 114.562,139.837 116.5,141.5C 106.307,143.928 95.9741,146.261 85.5,148.5C 89.9132,156.995 94.5799,165.328 99.5,173.5C 100.333,173.833 101.167,174.167 102,174.5C 108.128,172.926 114.295,171.592 120.5,170.5C 120.5,171.833 120.5,173.167 120.5,174.5C 115.613,175.979 110.613,177.145 105.5,178C 104.328,178.419 103.328,179.085 102.5,180C 106.874,187.915 111.374,195.748 116,203.5C 119.819,206.331 123.986,207.331 128.5,206.5C 131.167,206.5 133.833,206.5 136.5,206.5C 132.875,208.438 129.041,210.105 125,211.5C 123.516,216.769 122.349,222.102 121.5,227.5C 121.965,234.414 125.632,236.914 132.5,235C 161.802,228.64 191.136,222.473 220.5,216.5C 230.756,218.248 233.923,223.915 230,233.5C 224.279,238.787 218.613,238.787 213,233.5C 211.092,230.794 210.259,227.794 210.5,224.5C 187.752,228.783 165.086,233.45 142.5,238.5C 145.853,250.974 141.186,256.474 128.5,255C 127.069,254.535 125.903,253.701 125,252.5C 123.81,248.619 123.143,244.619 123,240.5C 118.431,237.361 115.931,233.028 115.5,227.5C 116.806,222.111 117.972,216.778 119,211.5C 116.037,209.539 113.371,207.206 111,204.5C 97.2122,179.755 83.0456,155.255 68.5,131C 64.6684,130.238 61.0018,130.738 57.5,132.5C 55.3432,131.034 55.0099,129.2 56.5,127C 61.4285,125.582 66.4285,125.249 71.5,126C 75.5571,131.058 79.2238,136.392 82.5,142C 91.4495,141.033 100.449,140.2 109.5,139.5 Z M 218.5,221.5 C 218.217,222.289 217.717,222.956 217,223.5C 214.781,229.93 216.947,232.763 223.5,232C 228.495,225.569 226.828,222.069 218.5,221.5 Z M 130.5,240.5 C 126.426,247.685 128.426,250.852 136.5,250C 139.733,243.711 137.733,240.545 130.5,240.5 Z"/></g>
<g><path style="opacity:1" fill="#284a30" d="M 212.5,125.5 C 214.752,125.916 216.252,127.249 217,129.5C 219.769,142.847 222.603,156.181 225.5,169.5C 225.113,174.789 222.446,178.289 217.5,180C 191.265,189.134 164.932,197.967 138.5,206.5C 138.5,205.167 138.5,203.833 138.5,202.5C 139.808,201.768 141.142,200.934 142.5,200C 141.833,196.833 140.499,194 138.5,191.5C 137.617,186.897 137.283,182.23 137.5,177.5C 140.286,183.816 143.286,190.15 146.5,196.5C 147.167,196.833 147.833,197.167 148.5,197.5C 154.247,196.307 159.913,194.807 165.5,193C 166.578,192.326 167.245,191.326 167.5,190C 165.957,181.93 163.791,174.096 161,166.5C 152.849,168.11 144.682,169.776 136.5,171.5C 136.5,169.833 136.5,168.167 136.5,166.5C 142.167,165.833 147.833,165.167 153.5,164.5C 160.96,164.767 168.293,163.934 175.5,162C 176.71,160.961 177.71,159.794 178.5,158.5C 181.909,157.097 185.575,156.43 189.5,156.5C 189.5,154.5 189.5,152.5 189.5,150.5C 189.738,148.596 190.738,147.262 192.5,146.5C 193.103,149.184 194.436,151.518 196.5,153.5C 202.876,153.048 209.043,151.714 215,149.5C 214.658,143.446 213.658,137.446 212,131.5C 210.729,130.117 209.229,129.117 207.5,128.5C 208.659,126.75 210.326,125.75 212.5,125.5 Z M 213.5,154.5 C 208.106,156.221 202.606,157.887 197,159.5C 197.496,166.169 198.329,172.836 199.5,179.5C 206.328,179.113 212.661,177.113 218.5,173.5C 219.696,168.142 219.529,162.809 218,157.5C 216.908,155.883 215.408,154.883 213.5,154.5 Z M 187.5,159.5 C 180.733,161.945 173.733,163.945 166.5,165.5C 168.164,173.49 169.83,181.49 171.5,189.5C 179.267,187.975 186.934,185.975 194.5,183.5C 194.833,182.5 195.167,181.5 195.5,180.5C 194.651,174.437 193.484,168.437 192,162.5C 191.082,160.624 189.582,159.624 187.5,159.5 Z"/></g>
<g><path style="opacity:1" fill="#274a2e" d="M 184.5,127.5 C 184.741,129.898 184.074,131.898 182.5,133.5C 174.841,134.249 167.174,134.916 159.5,135.5C 159.646,139.519 159.979,143.519 160.5,147.5C 159.167,147.5 157.833,147.5 156.5,147.5C 155.815,144.247 154.815,141.081 153.5,138C 148.5,138.163 143.5,138.663 138.5,139.5C 135.911,138.581 133.911,136.914 132.5,134.5C 149.948,132.721 167.281,130.388 184.5,127.5 Z"/></g>
<g><path style="opacity:1" fill="#2c5027" d="M 119.5,145.5 C 121.833,147.5 124.167,149.5 126.5,151.5C 127.363,153.421 128.029,155.421 128.5,157.5C 126.483,156.471 124.483,155.471 122.5,154.5C 121.304,151.579 120.304,148.579 119.5,145.5 Z"/></g>
<g><path style="opacity:1" fill="#92c643" d="M 122.5,154.5 C 124.483,155.471 126.483,156.471 128.5,157.5C 131.342,160.53 134.009,163.53 136.5,166.5C 136.5,168.167 136.5,169.833 136.5,171.5C 136.517,173.565 136.85,175.565 137.5,177.5C 137.283,182.23 137.617,186.897 138.5,191.5C 137.167,195.167 137.167,198.833 138.5,202.5C 138.5,203.833 138.5,205.167 138.5,206.5C 137.833,206.5 137.167,206.5 136.5,206.5C 133.833,206.5 131.167,206.5 128.5,206.5C 127.432,205.566 126.099,205.232 124.5,205.5C 123.917,198.179 123.417,190.846 123,183.5C 122.943,180.149 122.109,177.149 120.5,174.5C 120.5,173.167 120.5,171.833 120.5,170.5C 121.167,165.167 121.833,159.833 122.5,154.5 Z"/></g>
<g><path style="opacity:1" fill="#436933" d="M 175.5,158.5 C 176.5,158.5 177.5,158.5 178.5,158.5C 177.71,159.794 176.71,160.961 175.5,162C 168.293,163.934 160.96,164.767 153.5,164.5C 155.888,163.651 158.221,162.651 160.5,161.5C 164.962,161.577 169.295,160.91 173.5,159.5C 174.492,159.672 175.158,159.338 175.5,158.5 Z"/></g>
<g><path style="opacity:1" fill="#1d1d1d" d="M 268.5,195.5 C 270.75,195.951 272.084,197.285 272.5,199.5C 269.407,210.621 270.407,211.121 275.5,201C 276.784,200.316 277.951,200.483 279,201.5C 276.769,214.328 278.269,214.662 283.5,202.5C 284.651,201.269 285.817,201.269 287,202.5C 286.388,208.337 284.554,213.837 281.5,219C 275.062,217.853 268.895,215.686 263,212.5C 264.223,206.701 266.056,201.034 268.5,195.5 Z"/></g>
<g><path style="opacity:1" fill="#1b1b1b" d="M 48.5,196.5 C 50.1703,196.751 51.6703,197.418 53,198.5C 56.2724,203.599 56.9391,208.933 55,214.5C 51.6207,216.923 48.1207,217.09 44.5,215C 43.4271,212.343 41.7605,210.177 39.5,208.5C 34.6697,211.546 32.3363,210.046 32.5,204C 38.0038,201.747 43.3371,199.247 48.5,196.5 Z M 47.5,204.5 C 50.3892,204.999 51.0558,206.499 49.5,209C 48.2506,209.74 47.2506,209.573 46.5,208.5C 46.4326,207.041 46.7659,205.708 47.5,204.5 Z"/></g>
<g><path style="opacity:0.102" fill="#919191" d="M 47.5,204.5 C 46.7659,205.708 46.4326,207.041 46.5,208.5C 45.8761,208.083 45.5427,207.416 45.5,206.5C 45.7472,205.287 46.4138,204.62 47.5,204.5 Z"/></g>
<g><path style="opacity:1" fill="#212121" d="M 54.5,221.5 C 66.5452,222.028 71.0452,228.028 68,239.5C 58.0222,247.959 50.8555,245.792 46.5,233C 47.3904,227.941 50.057,224.108 54.5,221.5 Z M 56.5,228.5 C 54.8627,229.974 53.8627,231.808 53.5,234C 54.3058,238.492 56.6391,239.492 60.5,237C 64.7372,231.639 63.4038,228.806 56.5,228.5 Z"/></g>
<g><path style="opacity:1" fill="#1d1d1d" d="M 271.5,226.5 C 273.714,226.291 275.381,227.124 276.5,229C 274.1,234.062 270.933,238.562 267,242.5C 260.682,239.85 255.182,236.017 250.5,231C 251.098,228.952 252.431,227.785 254.5,227.5C 258.79,229.313 262.79,231.646 266.5,234.5C 268.675,232.15 270.342,229.483 271.5,226.5 Z"/></g>
<g><path style="opacity:1" fill="#131313" d="M 76.5,242.5 C 79.2723,242.595 81.2723,243.929 82.5,246.5C 78.1667,251.5 73.5,256.167 68.5,260.5C 66.8333,259.5 65.5,258.167 64.5,256.5C 68.8972,252.108 72.8972,247.442 76.5,242.5 Z"/></g>
<g><path style="opacity:1" fill="#1a1a1a" d="M 239.5,242.5 C 247.457,243.931 254.79,246.931 261.5,251.5C 259.851,254.739 257.184,256.239 253.5,256C 250.764,259.321 248.431,262.821 246.5,266.5C 242.01,261.023 238.676,254.856 236.5,248C 237.758,246.259 238.758,244.426 239.5,242.5 Z M 243.5,249.5 C 244.391,251.609 245.558,253.609 247,255.5C 247.833,254.667 248.667,253.833 249.5,253C 247.609,251.558 245.609,250.391 243.5,249.5 Z"/></g>
<g><path style="opacity:1" fill="#191919" d="M 87.5,252.5 C 89.7224,252.178 91.5557,252.845 93,254.5C 94,258.5 95,262.5 96,266.5C 97.3088,264.024 99.1421,262.024 101.5,260.5C 103.497,260.986 104.831,262.153 105.5,264C 102.391,270.069 98.2245,275.236 93,279.5C 91.7387,279.241 90.7387,278.574 90,277.5C 89.3784,273.388 88.3784,269.388 87,265.5C 85.654,268.179 83.654,270.179 81,271.5C 79.1667,271 78,269.833 77.5,268C 80.9623,262.907 84.2957,257.74 87.5,252.5 Z"/></g>
<g><path style="opacity:1" fill="#1e1e1e" d="M 220.5,257.5 C 223.545,257.508 226.545,257.841 229.5,258.5C 229.67,259.822 229.337,260.989 228.5,262C 225.743,262.878 223.076,263.878 220.5,265C 224.813,264.755 229.147,264.755 233.5,265C 237.196,274.026 234.029,279.193 224,280.5C 220.501,280.485 219.167,278.818 220,275.5C 222.405,274.726 224.905,274.226 227.5,274C 228.167,273.333 228.833,272.667 229.5,272C 225.199,272.363 220.866,272.363 216.5,272C 214.787,270.622 213.453,268.955 212.5,267C 215.002,263.667 217.668,260.501 220.5,257.5 Z"/></g>
<g><path style="opacity:1" fill="#1e1e1e" d="M 109.5,266.5 C 116.191,267.506 122.524,269.673 128.5,273C 129.833,274.333 129.833,275.667 128.5,277C 125.843,277.175 123.176,277.008 120.5,276.5C 119.92,281.494 118.42,286.161 116,290.5C 113.527,289.967 111.693,288.634 110.5,286.5C 111.691,282.618 113.024,278.785 114.5,275C 113.396,273.18 111.896,271.68 110,270.5C 109.51,269.207 109.343,267.873 109.5,266.5 Z"/></g>
<g><path style="opacity:1" fill="#202020" d="M 191.5,271.5 C 194.465,272.582 194.965,274.249 193,276.5C 190.699,277.867 188.199,278.534 185.5,278.5C 185.5,279.5 185.5,280.5 185.5,281.5C 188.119,281.768 190.619,281.435 193,280.5C 194.718,282.202 194.885,284.035 193.5,286C 191.19,286.497 188.857,286.663 186.5,286.5C 186.817,289.572 186.484,292.572 185.5,295.5C 183.958,296.747 182.458,296.747 181,295.5C 179.121,288.607 177.954,281.607 177.5,274.5C 182.444,274.246 187.111,273.246 191.5,271.5 Z"/></g>
<g><path style="opacity:1" fill="#202020" d="M 155.5,275.5 C 166.9,275.061 171.733,280.394 170,291.5C 165.206,298.541 159.039,300.041 151.5,296C 145.458,287.755 146.791,280.922 155.5,275.5 Z M 156.5,281.5 C 152.209,289.836 154.542,293.502 163.5,292.5C 163.82,289.102 163.487,285.768 162.5,282.5C 160.591,281.652 158.591,281.318 156.5,281.5 Z"/></g>
</svg>
